HIERARCHY
ROOT Hips
{
    OFFSET 0.000000 0.000000 0.000000
    CHANNELS 6 Xposition Yposition Zposition Zrotation Xrotation Yrotation
    JOINT Chest
    {
        OFFSET -0.000000 0.078597 0.000000
        CHANNELS 3 Zrotation Xrotation Yrotation
        JOINT Chest2
        {
            OFFSET -0.000000 0.230468 0.000000
            CHANNELS 3 Zrotation Xrotation Yrotation
            JOINT Neck
            {
                OFFSET -0.000000 0.249638 0.000000
                CHANNELS 3 Zrotation Xrotation Yrotation
                JOINT Head
                {
                    OFFSET -0.000000 0.103998 0.019170
                    CHANNELS 3 Zrotation Xrotation Yrotation
                    End Site
                    {
                        OFFSET -0.000000 0.191701 0.000000
                    }
                }
            }
            JOINT LeftCollar
            {
                OFFSET 0.038274 0.205938 -0.001496
                CHANNELS 3 Zrotation Xrotation Yrotation
                JOINT LeftShoulder
                {
                    OFFSET 0.132388 0.000000 0.000000
                    CHANNELS 3 Zrotation Xrotation Yrotation
                    JOINT LeftElbow
                    {
                        OFFSET 0.250301 0.000000 0.000000
                        CHANNELS 3 Zrotation Xrotation Yrotation
                        JOINT LeftWrist
                        {
                            OFFSET 0.285291 0.000000 0.000000
                            CHANNELS 3 Zrotation Xrotation Yrotation
                            End Site
                            {
                                OFFSET 0.000000 -0.143776 0.000000
                            }
                        }
                    }
                }
            }
            JOINT RightCollar
            {
                OFFSET -0.038406 0.205938 -0.001496
                CHANNELS 3 Zrotation Xrotation Yrotation
                JOINT RightShoulder
                {
                    OFFSET -0.132388 0.000000 0.000000
                    CHANNELS 3 Zrotation Xrotation Yrotation
                    JOINT RightElbow
                    {
                        OFFSET -0.250301 0.000000 0.000000
                        CHANNELS 3 Zrotation Xrotation Yrotation
                        JOINT RightWrist
                        {
                            OFFSET -0.285291 0.000000 0.000000
                            CHANNELS 3 Zrotation Xrotation Yrotation
                            End Site
                            {
                                OFFSET -0.000000 -0.143776 0.000000
                            }
                        }
                    }
                }
            }
        }
    }
    JOINT LeftHip
    {
        OFFSET 0.095851 0.000000 0.000000
        CHANNELS 3 Zrotation Xrotation Yrotation
        JOINT LeftKnee
        {
            OFFSET -0.000000 -0.406444 0.000000
            CHANNELS 3 Zrotation Xrotation Yrotation
            JOINT LeftAnkle
            {
                OFFSET -0.000000 -0.408443 0.000000
                CHANNELS 3 Zrotation Xrotation Yrotation
                JOINT LeftToe
                {
                    OFFSET -0.000000 -0.062303 0.143776
                    CHANNELS 3 Zrotation Xrotation Yrotation
                    End Site
                    {
                        OFFSET -0.000000 0.000000 0.038340
                    }
                }
            }
        }
    }
    JOINT RightHip
    {
        OFFSET -0.095851 0.000000 0.000000
        CHANNELS 3 Zrotation Xrotation Yrotation
        JOINT RightKnee
        {
            OFFSET -0.000000 -0.406444 0.000000
            CHANNELS 3 Zrotation Xrotation Yrotation
            JOINT RightAnkle
            {
                OFFSET -0.000000 -0.408443 0.000000
                CHANNELS 3 Zrotation Xrotation Yrotation
                JOINT RightToe
                {
                    OFFSET -0.000000 -0.062303 0.143776
                    CHANNELS 3 Zrotation Xrotation Yrotation
                    End Site
                    {
                        OFFSET -0.000000 0.000000 0.038340
                    }
                }
            }
        }
    }
}
MOTION
Frames:    4
Frame Time:    0.016667
-0.052148    0.863425    0.170166    4.198598    9.631747    -178.787399    -1.406407    1.326359    -0.837526    -5.102436    6.600938    0.013341    3.747923    16.500586    -11.587968    0.301757    2.737728    -10.973964    8.387341    -0.510786    -8.602844    -52.565292    43.344158    -25.836239    -9.551171    0.079825    -8.347295    97.613190    0.270368    0.600790    -3.601499    -10.337835    11.536251    47.453869    12.738251    6.476044    26.260963    -29.012634    108.644455    -74.301964    -11.303082    -55.030205    11.569958    9.491528    4.646681    -6.467863    21.657204    18.730282    -2.124605    -24.562582    12.522820    0.000000    0.000000    0.000000    -5.114734    2.477186    2.663347    4.365022    12.841871    -0.654703    3.594867    -13.829235    -10.890154    0.000000    0.000000    0.000000    
-0.053876    0.863670    0.170966    4.131489    9.627649    -178.881332    -1.412595    1.324782    -0.832001    -5.323282    6.585707    0.027230    3.715845    16.829224    -11.325015    0.131977    2.831295    -10.675277    8.402541    -0.443260    -8.494459    -52.559135    43.338478    -25.845543    -9.611800    0.009605    -7.834053    97.827370    0.258384    0.632413    -3.643614    -10.176459    11.509969    46.899326    12.343146    6.423446    25.932026    -29.311569    108.365135    -74.315590    -11.753530    -54.744530    11.299382    9.554046    4.911149    -6.311886    21.496504    18.518885    -1.986699    -24.504299    12.612288    0.000000    0.000000    0.000000    -5.287700    2.454826    2.715189    4.300007    12.718224    -0.701524    3.772257    -13.596463    -10.741678    0.000000    0.000000    0.000000    
-0.055517    0.863846    0.171720    4.074070    9.633900    -178.885330    -1.407565    1.304303    -0.896748    -5.464921    6.622890    0.015734    3.673293    16.919554    -10.983242    -0.246290    3.170506    -10.273362    8.306687    -0.442880    -8.359382    -52.590580    43.149609    -25.692942    -9.690569    -0.077256    -7.485471    97.733208    0.254687    0.695486    -3.836617    -10.104099    11.330836    46.195728    11.883338    6.495924    26.013163    -29.182152    108.167130    -74.519730    -11.556987    -54.701405    11.148830    9.540385    5.040731    -6.342939    21.464344    18.414536    -1.801931    -24.480549    12.668554    0.000000    0.000000    0.000000    -5.390974    2.484614    2.671898    4.134501    12.571313    -0.624212    3.970758    -13.403708    -10.703711    0.000000    0.000000    0.000000    
-0.057273    0.863974    0.172364    4.031081    9.667711    -178.882370    -1.355039    1.279394    -0.963611    -5.702539    6.614876    0.007151    3.579485    17.291552    -10.602685    -0.444683    3.347434    -9.863786    8.205941    -0.251100    -8.317406    -52.402355    42.859955    -25.753378    -9.855895    -0.196550    -7.106928    97.559219    0.375778    0.785243    -3.770830    -9.923401    11.290281    45.322090    11.788133    6.536103    25.785908    -29.737627    108.207436    -74.802574    -11.457312    -54.910358    10.968067    9.637407    5.062948    -6.335447    21.268414    18.401052    -1.624505    -24.510300    12.699117    0.000000    0.000000    0.000000    -5.492848    2.571045    2.630879    3.983853    12.384864    -0.494003    4.170507    -13.215606    -10.747388    0.000000    0.000000    0.000000    
